simulation
nRows=75
nColumns=15
endheader
time  TH_x TH_y TH_z SC_y  SC_z  SC_x  AC_y  AC_z  AC_x  GH_y  GH_z  GH_yy  EL_x  PS_y
0.000000  0.000000  0.000000  0.000000  -23.810347  3.640080  11.298808  45.215114  -0.008575  0.477051  18.240065  0.677495  20.872686  20.745450  83.103591
0.028283  0.000000  0.000000  0.000000  -23.739500  3.710299  11.340894  45.065841  -0.072777  0.399770  18.031167  0.815253  20.451847  20.432079  83.573345
0.056566  0.000000  0.000000  0.000000  -23.725782  3.746393  11.298695  45.015557  -0.102251  0.380500  17.830283  1.144806  20.166669  20.035417  83.696077
0.084848  0.000000  0.000000  0.000000  -23.760045  3.757642  11.198873  45.047019  -0.105429  0.400969  17.630814  1.655467  19.977316  19.577878  83.556462
0.113131  0.000000  0.000000  0.000000  -23.833144  3.753327  11.059520  45.142960  -0.084647  0.448999  17.426161  2.336551  19.843952  19.081876  83.239180
0.141414  0.000000  0.000000  0.000000  -23.935929  3.742730  10.883822  45.286098  -0.031660  0.522934  17.209723  3.177372  19.726739  18.569823  82.828907
0.169697  0.000000  0.000000  0.000000  -24.059253  3.735132  10.670772  45.459088  0.064856  0.623962  16.974903  4.167245  19.585840  18.064134  82.410322
0.197980  0.000000  0.000000  0.000000  -24.193969  3.739815  10.499234  45.644622  0.159241  0.697264  16.715101  5.295483  19.381420  17.587221  82.068101
0.226263  0.000000  0.000000  0.000000  -24.330930  3.766060  10.326050  45.825298  0.292716  0.773667  16.423717  6.551401  19.073642  17.161498  81.886924
0.254545  0.000000  0.000000  0.000000  -24.460988  3.823148  10.189050  45.983766  0.448634  0.827288  16.094152  7.924313  18.622668  16.809378  81.951466
0.282828  0.000000  0.000000  0.000000  -24.574996  3.920361  10.097501  46.102602  0.630593  0.852373  15.719807  9.403533  17.988662  16.553275  82.346407
0.311111  0.000000  0.000000  0.000000  -24.664795  4.066236  10.072695  46.165742  0.833040  0.835828  15.293954  10.978132  17.135271  16.414225  83.149203
0.339394  0.000000  0.000000  0.000000  -24.738331  4.257191  10.127123  46.178453  1.052284  0.783687  14.807764  12.633218  16.082855  16.390838  84.319745
0.367677  0.000000  0.000000  0.000000  -24.816653  4.479785  10.260363  46.163273  1.290577  0.721236  14.250701  14.350674  14.897918  16.463480  85.722268
0.395960  0.000000  0.000000  0.000000  -24.921191  4.720292  10.523617  46.144193  1.513132  0.638000  13.612179  16.112287  13.648305  16.611986  87.218232
0.424242  0.000000  0.000000  0.000000  -25.073374  4.964983  10.889108  46.144164  1.742408  0.577909  12.881612  17.899848  12.401859  16.816192  88.669096
0.452525  0.000000  0.000000  0.000000  -25.294386  5.200227  11.392258  46.187190  1.955297  0.540531  12.049031  19.695257  11.225374  17.056030  89.937880
0.480808  0.000000  0.000000  0.000000  -25.593899  5.416890  12.014709  46.284086  2.162308  0.542556  11.133736  21.485664  10.136106  17.315989  90.961244
0.509091  0.000000  0.000000  0.000000  -25.965319  5.612188  12.739193  46.428370  2.365772  0.571576  10.196340  23.265635  9.081368  17.586987  91.779832
0.537374  0.000000  0.000000  0.000000  -26.400827  5.783816  13.515516  46.611398  2.591139  0.635922  9.300581  25.030294  8.003184  17.860431  92.442140
0.565657  0.000000  0.000000  0.000000  -26.892604  5.929471  14.357172  46.826524  2.817578  0.700108  8.510194  26.774765  6.843585  18.127728  92.996664
0.593939  0.000000  0.000000  0.000000  -27.432821  6.046853  15.233189  47.066013  3.056424  0.759350  7.888825  28.494170  5.544664  18.380301  93.491898
0.622222  0.000000  0.000000  0.000000  -28.009750  6.135774  16.074598  47.320558  3.347011  0.842220  7.464526  30.182113  4.074935  18.616815  93.975956
0.650505  0.000000  0.000000  0.000000  -28.601866  6.201344  16.940787  47.585438  3.634463  0.909222  7.175890  31.828390  2.469312  18.854130  94.495990
0.678788  0.000000  0.000000  0.000000  -29.186131  6.249493  17.795563  47.852421  3.934028  0.988837  6.947678  33.422207  0.772974  19.111921  95.099004
0.707071  0.000000  0.000000  0.000000  -29.739504  6.286152  18.658626  48.115725  4.219874  1.071522  6.704649  34.952769  -0.968900  19.409861  95.832003
0.735354  0.000000  0.000000  0.000000  -30.238948  6.317252  19.551797  48.370049  4.464489  1.146351  6.371566  36.409284  -2.711130  19.767625  96.741990
0.763636  0.000000  0.000000  0.000000  -30.667896  6.347502  20.451315  48.609325  4.677339  1.231594  5.891353  37.783376  -4.408339  20.197124  97.852148
0.791919  0.000000  0.000000  0.000000  -31.040112  6.375901  21.363916  48.835265  4.858625  1.320090  5.292047  39.078008  -6.014221  20.673900  99.074046
0.820202  0.000000  0.000000  0.000000  -31.378233  6.399773  22.291403  49.050111  5.016398  1.406465  4.626588  40.299460  -7.482202  21.162853  100.286592
0.848485  0.000000  0.000000  0.000000  -31.704900  6.416443  23.224482  49.254143  5.167409  1.492590  3.947918  41.454012  -8.765706  21.628879  101.368690
0.876768  0.000000  0.000000  0.000000  -32.042753  6.423234  24.171352  49.447402  5.315483  1.568831  3.308982  42.547943  -9.818156  22.036877  102.199245
0.905051  0.000000  0.000000  0.000000  -32.411832  6.417561  25.126566  49.628060  5.473775  1.635066  2.757220  43.587203  -10.600174  22.356228  102.673293
0.933333  0.000000  0.000000  0.000000  -32.808544  6.397638  26.090709  49.794425  5.639602  1.692060  2.290010  44.574732  -11.137850  22.597081  102.832625
0.961616  0.000000  0.000000  0.000000  -33.216678  6.362113  27.074779  49.946349  5.796004  1.736498  1.878007  45.511864  -11.492221  22.791354  102.797365
0.989899  0.000000  0.000000  0.000000  -33.619904  6.309632  28.069869  50.083311  5.940885  1.778090  1.491618  46.399917  -11.724653  22.971165  102.688374
1.018182  0.000000  0.000000  0.000000  -34.001895  6.238847  29.077626  50.206219  6.063871  1.819743  1.101246  47.240209  -11.896510  23.168634  102.626513
1.046465  0.000000  0.000000  0.000000  -34.347108  6.148500  30.103767  50.317120  6.151892  1.861951  0.677667  48.033134  -12.066759  23.414919  102.728941
1.074747  0.000000  0.000000  0.000000  -34.656054  6.039280  31.148224  50.421366  6.208918  1.912815  0.199214  48.760209  -12.245446  23.721547  103.037375
1.103030  0.000000  0.000000  0.000000  -34.944233  5.913691  32.224697  50.528585  6.240018  1.975305  -0.348727  49.385331  -12.396949  24.081725  103.523094
1.131313  0.000000  0.000000  0.000000  -35.227717  5.774304  33.342817  50.648706  6.253541  2.055293  -0.980501  49.871721  -12.483893  24.487955  104.154677
1.159596  0.000000  0.000000  0.000000  -35.522581  5.623691  34.520022  50.792766  6.251371  2.153909  -1.710449  50.182600  -12.468906  24.932739  104.900705
1.187879  0.000000  0.000000  0.000000  -35.844682  5.464449  35.758218  50.971248  6.246525  2.282132  -2.552428  50.281767  -12.315141  25.408485  105.729614
1.216162  0.000000  0.000000  0.000000  -36.195258  5.300790  37.048141  51.185071  6.237294  2.433020  -3.487072  50.172486  -12.021775  25.901005  106.599822
1.244444  0.000000  0.000000  0.000000  -36.551791  5.139550  38.316647  51.414204  6.235015  2.598770  -4.441035  49.922130  -11.646506  26.385404  107.453480
1.272727  0.000000  0.000000  0.000000  -36.889588  4.987808  39.512042  51.635905  6.232468  2.753647  -5.336027  49.603948  -11.252392  26.835805  108.231250
1.301010  0.000000  0.000000  0.000000  -37.183954  4.852642  40.554763  51.822850  6.245864  2.888675  -6.093759  49.291190  -10.902494  27.226328  108.873792
1.329293  0.000000  0.000000  0.000000  -37.410203  4.741127  41.402048  51.948169  6.263849  2.971450  -6.635970  49.057084  -10.659847  27.531106  109.321791
1.357576  0.000000  0.000000  0.000000  -37.553432  4.657556  42.012712  51.996541  6.288816  2.991191  -6.918325  48.951335  -10.561272  27.732605  109.544603
1.385859  0.000000  0.000000  0.000000  -37.627352  4.598081  42.386490  51.992748  6.332820  2.978099  -6.995756  48.954825  -10.566879  27.837697  109.595471
1.414141  0.000000  0.000000  0.000000  -37.650883  4.557373  42.560227  51.972413  6.385309  2.951830  -6.941252  49.035910  -10.622823  27.857691  109.542903
1.442424  0.000000  0.000000  0.000000  -37.642945  4.530104  42.576865  51.972805  6.430548  2.928095  -6.827803  49.162949  -10.675259  27.803897  109.455406
1.470707  0.000000  0.000000  0.000000  -37.622458  4.510943  42.435291  52.028808  6.487685  2.949481  -6.728402  49.304301  -10.670343  27.687623  109.401486
1.498990  0.000000  0.000000  0.000000  -37.604701  4.496293  42.172338  52.168947  6.542865  3.025865  -6.699502  49.427949  -10.568473  27.520725  109.436270
1.527273  0.000000  0.000000  0.000000  -37.584951  4.492063  41.779677  52.368133  6.598606  3.146483  -6.706674  49.499813  -10.408346  27.318062  109.541345
1.555556  0.000000  0.000000  0.000000  -37.551648  4.507415  41.244931  52.583753  6.653644  3.286628  -6.684429  49.485107  -10.255418  27.095515  109.673166
1.583838  0.000000  0.000000  0.000000  -37.493225  4.551510  40.574824  52.774542  6.690940  3.410126  -6.567249  49.349048  -10.175166  26.868969  109.788164
1.612121  0.000000  0.000000  0.000000  -37.398115  4.633513  39.772038  52.898916  6.695972  3.483667  -6.289616  49.056849  -10.233071  26.654308  109.842772
1.640404  0.000000  0.000000  0.000000  -37.255496  4.760972  38.784919  52.914336  6.698382  3.510545  -5.791922  48.577291  -10.487307  26.465871  109.797265
1.668687  0.000000  0.000000  0.000000  -37.062643  4.923824  37.676880  52.819178  6.649358  3.460503  -5.079045  47.918067  -10.916345  26.301130  109.653869
1.696970  0.000000  0.000000  0.000000  -36.821823  5.101162  36.461132  52.628534  6.548645  3.355932  -4.195562  47.110827  -11.449596  26.147176  109.440631
1.725253  0.000000  0.000000  0.000000  -36.535374  5.271920  35.154992  52.358220  6.392941  3.216963  -3.186626  46.187569  -12.015749  25.990948  109.185978
1.753535  0.000000  0.000000  0.000000  -36.205632  5.415033  33.789274  52.025260  6.168155  3.055326  -2.097395  45.180292  -12.543494  25.819383  108.918336
1.781818  0.000000  0.000000  0.000000  -35.834912  5.509882  32.380723  51.646022  5.871543  2.890605  -0.972233  44.120264  -12.962785  25.619664  108.664882
1.810101  0.000000  0.000000  0.000000  -35.424870  5.547529  30.946448  51.232831  5.510896  2.727101  0.165161  43.019696  -13.236530  25.385324  108.420227
1.838384  0.000000  0.000000  0.000000  -34.976462  5.531542  29.498361  50.792872  5.109883  2.556480  1.313221  41.870386  -13.362934  25.116696  108.144093
1.866667  0.000000  0.000000  0.000000  -34.490610  5.466102  28.035594  50.332360  4.702543  2.378083  2.471467  40.663128  -13.341933  24.814451  107.794491
1.894949  0.000000  0.000000  0.000000  -33.968235  5.355393  26.571239  49.858204  4.311953  2.182860  3.639419  39.388720  -13.173465  24.479257  107.329436
1.923232  0.000000  0.000000  0.000000  -33.410265  5.203639  25.104953  49.376319  3.971283  1.970927  4.816533  38.038045  -12.857571  24.111812  106.707219
1.951515  0.000000  0.000000  0.000000  -32.818383  5.019723  23.655031  48.892323  3.685699  1.738827  5.995353  36.611390  -12.405585  23.716047  105.916142
1.979798  0.000000  0.000000  0.000000  -32.195682  4.821252  22.233632  48.410033  3.439435  1.502098  7.155484  35.126659  -11.849990  23.301950  105.000718
2.008081  0.000000  0.000000  0.000000  -31.545411  4.626789  20.866461  47.934053  3.203968  1.268384  8.275106  33.603691  -11.225593  22.880173  104.011638
2.036364  0.000000  0.000000  0.000000  -30.870819  4.454900  19.576114  47.469325  2.953532  1.046587  9.332398  32.062326  -10.567204  22.461366  102.999596
2.064646  0.000000  0.000000  0.000000  -30.175155  4.324149  18.379444  47.021173  2.667002  0.848752  10.305543  30.522402  -9.909627  22.056183  102.015282
2.092929  0.000000  0.000000  0.000000  -29.465274  4.246667  17.290878  46.595450  2.330574  0.682124  11.185303  28.998093  -9.275344  21.671944  101.094097
